Coordinates
version=1
nRows=17
nColumns=36
inDegrees=yes

Units are S.I. units (second, meters, Newtons, ...)
If the header above contains a line with 'inDegrees', this indicates whether rotational values are in degrees (yes) or radians (no).

endheader
time	pelvis_tilt	pelvis_list	pelvis_rotation	pelvis_tx	pelvis_ty	pelvis_tz	hip_flexion_r	hip_adduction_r	hip_rotation_r	knee_angle_r	knee_angle_r_beta	ankle_angle_r	subtalar_angle_r	mtp_angle_r	hip_flexion_l	hip_adduction_l	hip_rotation_l	knee_angle_l	knee_angle_l_beta	ankle_angle_l	subtalar_angle_l	mtp_angle_l	lumbar_extension	lumbar_bending	lumbar_rotation	arm_flex_r	arm_add_r	arm_rot_r	elbow_flex_r	pro_sup_r	arm_flex_l	arm_add_l	arm_rot_l	elbow_flex_l	pro_sup_l
      4.18750000	      4.05592119	      1.08708030	     -3.30524139	      0.45780194	      1.00973002	     -0.10000475	     -5.09692953	     -2.82204075	     11.37932782	      4.50917202	      0.07869990	      5.03003700	    -18.03930391	     -7.49999987	     -3.20805317	     -1.53681513	      7.79972955	      7.24580227	      0.12646311	      2.08801680	    -22.05705998	     -7.49999987	    -14.97859074	      2.14479085	      0.22271115	      4.38431580	     -8.94502946	      7.18518434	     27.96013571	     91.45768675	      6.32401653	     -4.50327410	     -9.72658346	     27.51201299	     91.67684968
      4.19166670	      3.86477855	      1.10466437	     -3.20665859	      0.45806138	      1.01122635	     -0.10004636	     -4.98146432	     -2.82951086	     11.49607122	      4.29089038	      0.07489017	      4.60187844	    -18.37600766	     -7.49999987	     -3.03058008	     -1.49988332	      8.33214938	      7.09528677	      0.12383612	      1.20824214	    -23.15072168	     -7.49999987	    -14.74653133	      2.17483016	      0.08135903	      4.29403640	     -9.04745255	      8.18631847	     28.31149855	     88.02181169	      6.11497773	     -4.72206253	     -8.51711831	     27.56748195	     87.81412352
      4.19583330	      3.77877422	      1.12403650	     -3.24158282	      0.45814709	      1.01134549	     -0.10042176	     -4.90360625	     -2.86702570	     11.57200519	      4.17302976	      0.07283311	      4.55614761	    -18.25173509	     -7.49999987	     -2.94295879	     -1.47726658	      8.08118773	      7.03509832	      0.12278563	      1.34436489	    -22.62375987	     -7.49999987	    -14.69464762	      2.12512691	      0.24393863	      4.20245169	     -8.82235950	      5.79735866	     28.35504483	     97.67340994	      6.15485841	     -4.53232312	    -10.74511798	     27.47969702	     97.14846382
      4.20000000	      3.85482156	      1.09728167	     -3.27825898	      0.45969117	      1.00457559	     -0.10013868	     -5.03205692	     -2.85764532	     11.61038047	      4.11596829	      0.07183720	      4.51411556	    -18.43783783	     -7.49999987	     -3.04628489	     -1.50327072	      8.02433746	      6.99526195	      0.12209035	      1.40205731	    -22.70925008	     -7.49999987	    -14.74856418	      2.08884812	      0.32426421	      4.20825854	     -8.82255577	      6.09364000	     28.34031533	     96.31829328	      6.09605414	     -4.61051344	    -10.49154816	     27.37245023	     95.87943242
      4.20416670	      3.76422081	      1.09264352	     -3.32214834	      0.45852512	      1.01071746	     -0.09921697	     -4.94984915	     -2.83937731	     11.59039576	      4.07122160	      0.07105622	      4.51547532	    -18.38078246	     -7.49999987	     -2.96008952	     -1.54100519	      7.93791615	      6.91897538	      0.12075890	      1.37048443	    -22.67113906	     -7.49999987	    -14.73691623	      2.05196201	      0.36467176	      4.24894291	     -8.77093987	      6.08656993	     28.36717832	     96.30065898	      6.06028895	     -4.67396304	    -10.51919818	     27.34384593	     95.86366405
      4.20833330	      3.77355251	      1.04106754	     -3.41966296	      0.45917967	      1.00858393	     -0.09850591	     -5.02941975	     -2.78141076	     11.69260429	      3.96905914	      0.06927315	      4.58018364	    -18.12706263	     -7.49999987	     -3.11048006	     -1.64151173	      7.67825727	      6.71194942	      0.11714562	      1.43173385	    -22.43909376	     -7.49999987	    -14.66342221	      2.00804430	      0.47534494	      4.19833505	     -8.62812531	      6.02133799	     28.23188166	     93.85715590	      6.01131931	     -4.69974717	    -10.60201558	     27.09664508	     93.37339809
      4.21250000	      3.67917137	      0.99828350	     -3.43308147	      0.45890222	      1.00862733	     -0.09998519	     -4.96247480	     -2.74265744	     11.79422232	      3.94409629	      0.06883747	      4.51933485	    -18.14354029	     -7.49999987	     -3.08454064	     -1.69694203	      7.70772773	      6.57010921	      0.11467004	      1.28528101	    -22.61396913	     -7.49999987	    -14.55325757	      2.04357559	      0.46070398	      4.20673155	     -8.67143915	      6.11404551	     28.20011500	     93.58630817	      5.96907410	     -4.78360466	    -10.54911634	     26.98822307	     93.07754112
      4.21666670	      3.51385998	      0.98345760	     -3.45755015	      0.45857322	      1.01003585	     -0.09844964	     -4.81422338	     -2.70727211	     11.82797765	      3.86071604	      0.06738221	      4.54167690	    -17.99464575	     -7.49999987	     -2.94949921	     -1.74491232	      7.69569412	      6.49063615	      0.11328297	      1.23550629	    -22.60277522	     -7.49999987	    -14.33205613	      1.99477392	      0.45160462	      4.22096736	     -8.52672704	      5.73775944	     28.13687928	     97.46057980	      5.85602528	     -4.76540973	    -11.32121613	     26.82830102	     97.06142324
      4.22083330	      3.51112761	      0.94394831	     -3.51898876	      0.45948976	      1.00740830	     -0.09869393	     -4.85507141	     -2.66868889	     11.98575367	      3.80254077	      0.06636686	      4.47631518	    -18.15642384	     -7.49999987	     -3.04112301	     -1.80320277	      7.57544762	      6.35196514	      0.11086271	      1.21885559	    -22.60890830	     -7.49999987	    -14.28006879	      1.97818642	      0.56027082	      4.15511267	     -8.52735697	      6.22867001	     28.15242031	     94.72710051	      5.77843344	     -4.84280319	    -10.81866607	     26.78457589	     94.30261065
      4.22500000	      3.53441795	      0.95111347	     -3.51584146	      0.46017411	      1.00732387	     -0.10005511	     -4.91675292	     -2.69122517	     12.00487551	      3.77891000	      0.06595442	      4.38152930	    -18.32142067	     -7.49999987	     -3.14224170	     -1.78305714	      7.59067818	      6.27079844	      0.10944608	      1.11874438	    -22.75751672	     -7.49999987	    -14.21687877	      1.94221293	      0.53523952	      4.14914921	     -8.54030471	      6.92581229	     28.08611027	     92.50859270	      5.73031959	     -4.95408474	    -10.19843008	     26.63260439	     92.02413744
      4.22916670	      3.24189994	      0.94521356	     -3.48601906	      0.45893252	      1.00596354	     -0.09833252	     -4.61936810	     -2.64805081	     11.83879373	      3.76372128	      0.06568933	      4.64859252	    -17.96709383	     -7.49999987	     -2.78997669	     -1.81606604	      7.60524907	      6.41035954	      0.11188188	      1.48892359	    -22.43598739	     -7.49999987	    -13.79933138	      1.90527212	      0.54397646	      3.82282654	     -8.49528261	      6.86714335	     28.61494098	     91.81738979	      5.36206798	     -4.99845482	    -10.21315232	     27.09962761	     91.32872052
      4.23333330	      3.47826223	      0.92664700	     -3.51138680	      0.45748371	      1.00897364	     -0.09836039	     -4.87681659	     -2.61603333	     12.07448952	      3.70531401	      0.06466993	      4.33282938	    -18.36188678	     -7.49999987	     -3.09031002	     -1.84834781	      7.59550678	      6.29011383	      0.10978320	      1.27903994	    -22.34820728	     -7.49999987	    -14.19625654	      1.83219171	      0.68090437	      4.04432278	     -8.28385851	      5.53978396	     28.31970799	     97.33062629	      5.67849650	     -4.89109687	    -11.47969953	     26.60890466	     96.89694711
      4.23750000	      3.43805350	      0.90972677	     -3.52757693	      0.45793014	      1.00877181	     -0.09993983	     -4.85287527	     -2.61213420	     12.15742233	      3.64979372	      0.06370092	      4.27975850	    -18.38400164	     -7.49999987	     -3.06688266	     -1.86967273	      7.55502370	      6.21865163	      0.10853595	      1.24957962	    -22.37946099	     -7.49999987	    -14.17553479	      1.82294214	      0.69701735	      4.05304760	     -8.24339593	      5.55189460	     28.34503617	     97.30802043	      5.67430479	     -4.89217613	    -11.57342615	     26.54213490	     97.07516727
      4.24166670	      3.35454235	      0.88138838	     -3.50256913	      0.45664290	      1.01050034	     -0.09858491	     -4.76634610	     -2.56542989	     12.20159186	      3.54637328	      0.06189589	      4.10325824	    -18.41699725	     -7.49999987	     -2.95984091	     -1.91336048	      7.63637413	      6.17726284	      0.10781358	      1.17763395	    -22.36272534	     -7.49999987	    -14.16921616	      1.85373865	      0.74361555	      4.03671558	     -8.24282496	      5.60062202	     28.44968829	     96.84260934	      5.70937325	     -4.88613726	    -11.42700076	     26.52517686	     96.69917044
      4.24583330	      3.20205246	      0.91440396	     -3.49462367	      0.45685570	      1.01064382	     -0.09843598	     -4.59890221	     -2.58766621	     12.30424796	      3.45333564	      0.06027208	      4.06544787	    -18.38074531	     -7.49999987	     -2.77053391	     -1.89539675	      7.69542245	      6.15531462	      0.10743051	      0.96755336	    -22.50565935	     -7.49999987	    -14.03840054	      1.75695264	      0.72986393	      4.03359052	     -8.16671495	      5.79556619	     28.48985751	     96.19825837	      5.70629055	     -4.99112516	    -11.11870582	     26.40106900	     96.04069745
      4.25000000	      3.23361419	      0.89183182	     -3.52699879	      0.45828998	      1.01012213	     -0.09961390	     -4.67516709	     -2.59831970	     12.21578363	      3.38249727	      0.05903571	      4.00112034	    -18.19606832	     -7.49999987	     -2.84187979	     -1.92509302	      7.53294116	      6.07172320	      0.10597156	      1.05404833	    -22.17242844	     -7.49999987	    -14.10205951	      1.76936441	      0.73876066	      3.96409567	     -8.06092043	      5.14584391	     28.63071117	     97.53437664	      5.66736944	     -4.93768539	    -11.51503363	     26.43300280	     97.13480221
      4.25416670	      3.20068233	      0.89199158	     -3.57009989	      0.45772929	      1.01158564	     -0.10011577	     -4.65281995	     -2.64804568	     12.12180532	      3.33672145	      0.05823678	      3.94660737	    -18.03919921	     -7.49999987	     -2.83301507	     -1.90880691	      7.48481662	      5.97457507	      0.10427601	      0.94127103	    -22.20827489	     -7.49999987	    -14.06783399	      1.79378657	      0.73478645	      3.98649248	     -8.05931061	      5.39870476	     28.63233051	     96.38526698	      5.63312311	     -4.94175467	    -11.16498084	     26.29825236	     95.99944255
